<?xml version="1.0" encoding="UTF-8" standalone="no"?>
<!DOCTYPE svg PUBLIC "-//W3C//DTD SVG 1.1//EN"
 "http://www.w3.org/Graphics/SVG/1.1/DTD/svg11.dtd">
<!-- Generated by graphviz version 2.44.1 (20200629.0846)
 -->
<!-- Pages: 1 -->
<svg width="2651pt" height="967pt"
 viewBox="0.00 0.00 2650.96 966.65" xmlns="http://www.w3.org/2000/svg" xmlns:xlink="http://www.w3.org/1999/xlink">
<g id="graph0" class="graph" transform="scale(1 1) rotate(0) translate(4 962.65)">
<polygon fill="white" stroke="transparent" points="-4,4 -4,-962.65 2646.96,-962.65 2646.96,4 -4,4"/>
<g id="clust1" class="cluster">
<title>cluster&#45;nid&#45;02</title>
<polygon fill="none" stroke="#cccccc" points="792.94,-866.65 792.94,-936.65 1251.89,-936.65 1251.89,-866.65 792.94,-866.65"/>
</g>
<g id="clust2" class="cluster">
<title>cluster&#45;nid&#45;03</title>
<polygon fill="none" stroke="#cccccc" points="792.94,-780.65 792.94,-850.65 1251.89,-850.65 1251.89,-780.65 792.94,-780.65"/>
</g>
<g id="clust5" class="cluster">
<title>cluster&#45;nid&#45;06</title>
<polygon fill="none" stroke="#cccccc" points="8,-710.65 8,-780.65 154.11,-780.65 154.11,-710.65 8,-710.65"/>
</g>
<g id="clust7" class="cluster">
<title>cluster&#45;nid&#45;08</title>
<polygon fill="none" stroke="#cccccc" points="1901.32,-313.65 1901.32,-383.65 2319.52,-383.65 2319.52,-313.65 1901.32,-313.65"/>
</g>
<g id="clust8" class="cluster">
<title>cluster&#45;nid&#45;09</title>
<polygon fill="none" stroke="#cccccc" points="1901.32,-133.65 1901.32,-203.65 2319.52,-203.65 2319.52,-133.65 1901.32,-133.65"/>
</g>
<g id="clust10" class="cluster">
<title>cluster&#45;nid&#45;0b</title>
<polygon fill="none" stroke="#cccccc" points="747.11,-454.65 747.11,-772.65 1266.53,-772.65 1266.53,-454.65 747.11,-454.65"/>
</g>
<g id="clust11" class="cluster">
<title>cluster&#45;nid&#45;0c</title>
<polygon fill="none" stroke="#cccccc" points="1506.89,-682.65 1506.89,-808.65 1985.96,-808.65 1985.96,-682.65 1506.89,-682.65"/>
</g>
<g id="clust12" class="cluster">
<title>cluster&#45;nid&#45;0d</title>
<polygon fill="none" stroke="#cccccc" points="1506.89,-548.65 1506.89,-674.65 1985.96,-674.65 1985.96,-548.65 1506.89,-548.65"/>
</g>
<g id="clust14" class="cluster">
<title>cluster&#45;nid&#45;0f</title>
<polygon fill="none" stroke="#cccccc" points="1506.89,-816.65 1506.89,-942.65 1985.14,-942.65 1985.14,-816.65 1506.89,-816.65"/>
</g>
<g id="clust18" class="cluster">
<title>cluster&#45;nid&#45;12&#45;out</title>
<polygon fill="none" stroke="#cccccc" points="1126.89,-26.65 1126.89,-110.65 1306.89,-110.65 1306.89,-26.65 1126.89,-26.65"/>
</g>
<g id="clust20" class="cluster">
<title>cluster&#45;nid&#45;14&#45;in</title>
<polygon fill="none" stroke="#cccccc" points="2186.96,-498.65 2186.96,-582.65 2363.96,-582.65 2363.96,-498.65 2186.96,-498.65"/>
</g>
<g id="clust24" class="cluster">
<title>cluster&#45;nid&#45;17&#45;in</title>
<polygon fill="none" stroke="#cccccc" points="2185.96,-866.65 2185.96,-950.65 2364.96,-950.65 2364.96,-866.65 2185.96,-866.65"/>
</g>
<g id="clust26" class="cluster">
<title>cluster&#45;nid&#45;18&#45;in</title>
<polygon fill="none" stroke="#cccccc" points="2186.96,-682.65 2186.96,-766.65 2634.96,-766.65 2634.96,-682.65 2186.96,-682.65"/>
</g>
<g id="clust27" class="cluster">
<title>cluster&#45;nid&#45;18&#45;out</title>
<polygon fill="none" stroke="#cccccc" points="46.05,-370.65 46.05,-454.65 539.11,-454.65 539.11,-370.65 46.05,-370.65"/>
</g>
<g id="clust29" class="cluster">
<title>cluster&#45;nid&#45;19&#45;out</title>
<polygon fill="none" stroke="#cccccc" points="362.11,-94.65 362.11,-178.65 539.11,-178.65 539.11,-94.65 362.11,-94.65"/>
</g>
<g id="clust30" class="cluster">
<title>cluster&#45;nid&#45;1a&#45;in</title>
<polygon fill="none" stroke="#cccccc" points="2194.96,-406.65 2194.96,-490.65 2634.96,-490.65 2634.96,-406.65 2194.96,-406.65"/>
</g>
<g id="clust31" class="cluster">
<title>cluster&#45;nid&#45;1a&#45;out</title>
<polygon fill="none" stroke="#cccccc" points="46.05,-462.65 46.05,-546.65 531.11,-546.65 531.11,-462.65 46.05,-462.65"/>
</g>
<g id="clust32" class="cluster">
<title>cluster&#45;nid&#45;1b&#45;in</title>
<polygon fill="none" stroke="#cccccc" points="2186.96,-774.65 2186.96,-858.65 2634.96,-858.65 2634.96,-774.65 2186.96,-774.65"/>
</g>
<g id="clust33" class="cluster">
<title>cluster&#45;nid&#45;1b&#45;out</title>
<polygon fill="none" stroke="#cccccc" points="46.05,-278.65 46.05,-362.65 539.11,-362.65 539.11,-278.65 46.05,-278.65"/>
</g>
<g id="clust36" class="cluster">
<title>cluster&#45;nid&#45;1d&#45;out</title>
<polygon fill="none" stroke="#cccccc" points="354.11,-186.65 354.11,-270.65 547.11,-270.65 547.11,-186.65 354.11,-186.65"/>
</g>
<g id="clust37" class="cluster">
<title>cluster&#45;nid&#45;1e&#45;in</title>
<polygon fill="none" stroke="#cccccc" points="362.11,-703.65 362.11,-787.65 539.11,-787.65 539.11,-703.65 362.11,-703.65"/>
</g>
<g id="clust41" class="cluster">
<title>cluster&#45;nid&#45;21&#45;in</title>
<polygon fill="none" stroke="#cccccc" points="2185.96,-590.65 2185.96,-674.65 2364.96,-674.65 2364.96,-590.65 2185.96,-590.65"/>
</g>
<g id="clust43" class="cluster">
<title>cluster&#45;nid&#45;22</title>
<polygon fill="none" stroke="#cccccc" points="1535.91,-122.65 1535.91,-214.65 1657.66,-214.65 1657.66,-122.65 1535.91,-122.65"/>
</g>
<g id="clust44" class="cluster">
<title>cluster&#45;nid&#45;23</title>
<polygon fill="none" stroke="#cccccc" points="1535.91,-302.65 1535.91,-394.65 1657.66,-394.65 1657.66,-302.65 1535.91,-302.65"/>
</g>
<!-- nid&#45;02 -->
<g id="node1" class="node">
<title>nid&#45;02</title>
<ellipse fill="none" stroke="blue" cx="837" cy="-901.65" rx="36.12" ry="26.74"/>
<text text-anchor="middle" x="837" y="-905.45" font-family="Times,serif" font-size="14.00">0x02</text>
<text text-anchor="middle" x="837" y="-890.45" font-family="Times,serif" font-size="14.00">Stereo</text>
</g>
<!-- nid&#45;02&#45;ampout -->
<g id="node2" class="node">
<title>nid&#45;02&#45;ampout</title>
<polygon fill="none" stroke="#0000ff" points="1243.89,-901.65 1203.39,-919.65 1203.39,-883.65 1243.89,-901.65"/>
</g>
<!-- nid&#45;02&#45;&gt;nid&#45;02&#45;ampout -->
<g id="edge1" class="edge">
<title>nid&#45;02&#45;&gt;nid&#45;02&#45;ampout</title>
<path fill="none" stroke="#0000ff" d="M873.21,-901.65C951.85,-901.65 1139.42,-901.65 1198.06,-901.65"/>
<polygon fill="#0000ff" stroke="#0000ff" points="1198.32,-903.4 1203.32,-901.65 1198.32,-899.9 1198.32,-903.4"/>
</g>
<!-- nid&#45;0c&#45;ampin&#45;2 -->
<g id="node24" class="node">
<title>nid&#45;0c&#45;ampin&#45;2</title>
<polygon fill="none" stroke="#0000ff" points="1678.57,-777.65 1555.89,-800.65 1555.89,-754.65 1678.57,-777.65"/>
<text text-anchor="middle" x="1596.79" y="-773.95" font-family="Times,serif" font-size="14.00">0 (0x02)</text>
</g>
<!-- nid&#45;02&#45;ampout&#45;&gt;nid&#45;0c&#45;ampin&#45;2 -->
<g id="edge19" class="edge">
<title>nid&#45;02&#45;ampout&#45;&gt;nid&#45;0c&#45;ampin&#45;2</title>
<path fill="none" stroke="#333333" d="M1233.17,-896.63C1285.63,-879.42 1459.84,-822.25 1546.28,-793.89"/>
<polygon fill="#333333" stroke="#333333" points="1547.46,-797.19 1555.87,-790.75 1545.27,-790.54 1547.46,-797.19"/>
</g>
<!-- nid&#45;0f&#45;ampin&#45;2 -->
<g id="node30" class="node">
<title>nid&#45;0f&#45;ampin&#45;2</title>
<polygon fill="none" stroke="#0000ff" points="1678.57,-911.65 1555.89,-934.65 1555.89,-888.65 1678.57,-911.65"/>
<text text-anchor="middle" x="1596.79" y="-907.95" font-family="Times,serif" font-size="14.00">0 (0x02)</text>
</g>
<!-- nid&#45;02&#45;ampout&#45;&gt;nid&#45;0f&#45;ampin&#45;2 -->
<g id="edge27" class="edge">
<title>nid&#45;02&#45;ampout&#45;&gt;nid&#45;0f&#45;ampin&#45;2</title>
<path fill="none" stroke="#333333" d="M1242.69,-902.3C1304.02,-903.93 1463.79,-908.15 1545.73,-910.32"/>
<polygon fill="#333333" stroke="#333333" points="1545.71,-913.82 1555.8,-910.59 1545.9,-906.83 1545.71,-913.82"/>
</g>
<!-- nid&#45;03 -->
<g id="node3" class="node">
<title>nid&#45;03</title>
<ellipse fill="none" stroke="blue" cx="837" cy="-815.65" rx="36.12" ry="26.74"/>
<text text-anchor="middle" x="837" y="-819.45" font-family="Times,serif" font-size="14.00">0x03</text>
<text text-anchor="middle" x="837" y="-804.45" font-family="Times,serif" font-size="14.00">Stereo</text>
</g>
<!-- nid&#45;03&#45;ampout -->
<g id="node4" class="node">
<title>nid&#45;03&#45;ampout</title>
<polygon fill="none" stroke="#0000ff" points="1243.89,-815.65 1203.39,-833.65 1203.39,-797.65 1243.89,-815.65"/>
</g>
<!-- nid&#45;03&#45;&gt;nid&#45;03&#45;ampout -->
<g id="edge2" class="edge">
<title>nid&#45;03&#45;&gt;nid&#45;03&#45;ampout</title>
<path fill="none" stroke="#0000ff" d="M873.21,-815.65C951.85,-815.65 1139.42,-815.65 1198.06,-815.65"/>
<polygon fill="#0000ff" stroke="#0000ff" points="1198.32,-817.4 1203.32,-815.65 1198.32,-813.9 1198.32,-817.4"/>
</g>
<!-- nid&#45;0d&#45;ampin&#45;3 -->
<g id="node27" class="node">
<title>nid&#45;0d&#45;ampin&#45;3</title>
<polygon fill="none" stroke="#0000ff" points="1678.57,-643.65 1555.89,-666.65 1555.89,-620.65 1678.57,-643.65"/>
<text text-anchor="middle" x="1596.79" y="-639.95" font-family="Times,serif" font-size="14.00">0 (0x03)</text>
</g>
<!-- nid&#45;03&#45;ampout&#45;&gt;nid&#45;0d&#45;ampin&#45;3 -->
<g id="edge23" class="edge">
<title>nid&#45;03&#45;ampout&#45;&gt;nid&#45;0d&#45;ampin&#45;3</title>
<path fill="none" stroke="#333333" d="M1231.24,-810.01C1248.72,-802.58 1280.26,-789 1306.89,-776.65 1396.69,-735 1416.32,-718.59 1506.89,-678.65 1519.47,-673.1 1533.22,-667.48 1546.07,-662.41"/>
<polygon fill="#333333" stroke="#333333" points="1547.64,-665.55 1555.68,-658.65 1545.09,-659.03 1547.64,-665.55"/>
</g>
<!-- nid&#45;06 -->
<g id="node5" class="node">
<title>nid&#45;06</title>
<ellipse fill="none" stroke="blue" cx="81.05" cy="-745.65" rx="65.11" ry="26.74"/>
<text text-anchor="middle" x="81.05" y="-749.45" font-family="Times,serif" font-size="14.00">0x06</text>
<text text-anchor="middle" x="81.05" y="-734.45" font-family="Times,serif" font-size="14.00">Stereo Digital</text>
</g>
<!-- nid&#45;1e&#45;in -->
<g id="node44" class="node">
<title>nid&#45;1e&#45;in</title>
<polygon fill="none" stroke="green" points="531.11,-779.65 370.11,-779.65 370.11,-711.65 531.11,-711.65 531.11,-779.65"/>
<text text-anchor="middle" x="450.61" y="-764.45" font-family="Times,serif" font-size="14.00">0x1e</text>
<text text-anchor="middle" x="450.61" y="-749.45" font-family="Times,serif" font-size="14.00">[N/A] Speaker at Ext Rear</text>
<text text-anchor="middle" x="450.61" y="-734.45" font-family="Times,serif" font-size="14.00">Stereo Digital</text>
<text text-anchor="middle" x="450.61" y="-719.45" font-family="Times,serif" font-size="14.00">OUT</text>
</g>
<!-- nid&#45;06&#45;&gt;nid&#45;1e&#45;in -->
<g id="edge44" class="edge">
<title>nid&#45;06&#45;&gt;nid&#45;1e&#45;in</title>
<path fill="none" stroke="#333333" d="M146.5,-745.65C205.52,-745.65 293.47,-745.65 359.45,-745.65"/>
<polygon fill="#333333" stroke="#333333" points="359.84,-749.15 369.84,-745.65 359.84,-742.15 359.84,-749.15"/>
</g>
<!-- nid&#45;08 -->
<g id="node6" class="node">
<title>nid&#45;08</title>
<ellipse fill="none" stroke="red" cx="2275.46" cy="-348.65" rx="36.12" ry="26.74"/>
<text text-anchor="middle" x="2275.46" y="-352.45" font-family="Times,serif" font-size="14.00">0x08</text>
<text text-anchor="middle" x="2275.46" y="-337.45" font-family="Times,serif" font-size="14.00">Stereo</text>
</g>
<!-- nid&#45;08&#45;ampin -->
<g id="node7" class="node">
<title>nid&#45;08&#45;ampin</title>
<polygon fill="none" stroke="#3232f1" points="1963.32,-348.65 1922.82,-366.65 1922.82,-330.65 1963.32,-348.65"/>
</g>
<!-- nid&#45;08&#45;ampin&#45;&gt;nid&#45;08 -->
<g id="edge3" class="edge">
<title>nid&#45;08&#45;ampin&#45;&gt;nid&#45;08</title>
<path fill="none" stroke="#3232f1" d="M1963.49,-348.65C2022,-348.65 2163.71,-348.65 2233.81,-348.65"/>
<polygon fill="#3232f1" stroke="#3232f1" points="2234.14,-350.4 2239.14,-348.65 2234.14,-346.9 2234.14,-350.4"/>
</g>
<!-- nid&#45;23 -->
<g id="node8" class="node">
<title>nid&#45;23</title>
<polygon fill="none" stroke="black" points="1649.53,-386.65 1565.62,-386.65 1544.04,-310.65 1627.95,-310.65 1649.53,-386.65"/>
<text text-anchor="middle" x="1596.79" y="-352.45" font-family="Times,serif" font-size="14.00">0x23</text>
<text text-anchor="middle" x="1596.79" y="-337.45" font-family="Times,serif" font-size="14.00">Stereo</text>
</g>
<!-- nid&#45;23&#45;&gt;nid&#45;08&#45;ampin -->
<g id="edge4" class="edge">
<title>nid&#45;23&#45;&gt;nid&#45;08&#45;ampin</title>
<path fill="none" stroke="#333333" d="M1638.84,-348.65C1710.5,-348.65 1856.15,-348.65 1912.42,-348.65"/>
<polygon fill="#333333" stroke="#333333" points="1912.72,-352.15 1922.72,-348.65 1912.72,-345.15 1912.72,-352.15"/>
</g>
<!-- nid&#45;09 -->
<g id="node9" class="node">
<title>nid&#45;09</title>
<ellipse fill="none" stroke="red" cx="2275.46" cy="-168.65" rx="36.12" ry="26.74"/>
<text text-anchor="middle" x="2275.46" y="-172.45" font-family="Times,serif" font-size="14.00">0x09</text>
<text text-anchor="middle" x="2275.46" y="-157.45" font-family="Times,serif" font-size="14.00">Stereo</text>
</g>
<!-- nid&#45;09&#45;ampin -->
<g id="node10" class="node">
<title>nid&#45;09&#45;ampin</title>
<polygon fill="none" stroke="#c8c8c8" points="1963.32,-168.65 1922.82,-186.65 1922.82,-150.65 1963.32,-168.65"/>
</g>
<!-- nid&#45;09&#45;ampin&#45;&gt;nid&#45;09 -->
<g id="edge5" class="edge">
<title>nid&#45;09&#45;ampin&#45;&gt;nid&#45;09</title>
<path fill="none" stroke="#c8c8c8" d="M1963.49,-168.65C2022,-168.65 2163.71,-168.65 2233.81,-168.65"/>
<polygon fill="#c8c8c8" stroke="#c8c8c8" points="2234.14,-170.4 2239.14,-168.65 2234.14,-166.9 2234.14,-170.4"/>
</g>
<!-- nid&#45;22 -->
<g id="node11" class="node">
<title>nid&#45;22</title>
<polygon fill="none" stroke="black" points="1649.53,-206.65 1565.62,-206.65 1544.04,-130.65 1627.95,-130.65 1649.53,-206.65"/>
<text text-anchor="middle" x="1596.79" y="-172.45" font-family="Times,serif" font-size="14.00">0x22</text>
<text text-anchor="middle" x="1596.79" y="-157.45" font-family="Times,serif" font-size="14.00">Stereo</text>
</g>
<!-- nid&#45;22&#45;&gt;nid&#45;09&#45;ampin -->
<g id="edge6" class="edge">
<title>nid&#45;22&#45;&gt;nid&#45;09&#45;ampin</title>
<path fill="none" stroke="#333333" d="M1638.84,-168.65C1710.5,-168.65 1856.15,-168.65 1912.42,-168.65"/>
<polygon fill="#333333" stroke="#333333" points="1912.72,-172.15 1922.72,-168.65 1912.72,-165.15 1912.72,-172.15"/>
</g>
<!-- nid&#45;0b -->
<g id="node12" class="node">
<title>nid&#45;0b</title>
<polygon fill="none" stroke="black" points="1258.68,-613.65 1237.78,-644.7 1196,-644.7 1175.11,-613.65 1196,-582.59 1237.78,-582.59 1258.68,-613.65"/>
<text text-anchor="middle" x="1216.89" y="-617.45" font-family="Times,serif" font-size="14.00">0x0b</text>
<text text-anchor="middle" x="1216.89" y="-602.45" font-family="Times,serif" font-size="14.00">Stereo</text>
</g>
<!-- nid&#45;0b&#45;&gt;nid&#45;23 -->
<g id="edge59" class="edge">
<title>nid&#45;0b&#45;&gt;nid&#45;23</title>
<path fill="none" stroke="gray" stroke-dasharray="5,2" d="M1245.68,-594.16C1311,-548.35 1474.68,-433.57 1552.88,-378.73"/>
<polygon fill="gray" stroke="gray" points="1555.36,-381.27 1561.53,-372.67 1551.34,-375.54 1555.36,-381.27"/>
</g>
<!-- nid&#45;0b&#45;&gt;nid&#45;22 -->
<g id="edge52" class="edge">
<title>nid&#45;0b&#45;&gt;nid&#45;22</title>
<path fill="none" stroke="gray" stroke-dasharray="5,2" d="M1240.68,-586.81C1303.71,-512.59 1480.83,-304.02 1558.5,-212.56"/>
<polygon fill="gray" stroke="gray" points="1561.22,-214.75 1565.03,-204.86 1555.89,-210.22 1561.22,-214.75"/>
</g>
<!-- nid&#45;0c&#45;ampin&#45;11 -->
<g id="node25" class="node">
<title>nid&#45;0c&#45;ampin&#45;11</title>
<polygon fill="none" stroke="#c8c8c8" points="1678.57,-713.65 1555.89,-736.65 1555.89,-690.65 1678.57,-713.65"/>
<text text-anchor="middle" x="1596.79" y="-709.95" font-family="Times,serif" font-size="14.00">1 (0x0b)</text>
</g>
<!-- nid&#45;0b&#45;&gt;nid&#45;0c&#45;ampin&#45;11 -->
<g id="edge20" class="edge">
<title>nid&#45;0b&#45;&gt;nid&#45;0c&#45;ampin&#45;11</title>
<path fill="none" stroke="#333333" d="M1252.77,-622.88C1320,-640.67 1467.78,-679.77 1545.59,-700.36"/>
<polygon fill="#333333" stroke="#333333" points="1545.07,-703.85 1555.64,-703.02 1546.86,-697.08 1545.07,-703.85"/>
</g>
<!-- nid&#45;0d&#45;ampin&#45;11 -->
<g id="node28" class="node">
<title>nid&#45;0d&#45;ampin&#45;11</title>
<polygon fill="none" stroke="#c8c8c8" points="1678.57,-579.65 1555.89,-602.65 1555.89,-556.65 1678.57,-579.65"/>
<text text-anchor="middle" x="1596.79" y="-575.95" font-family="Times,serif" font-size="14.00">1 (0x0b)</text>
</g>
<!-- nid&#45;0b&#45;&gt;nid&#45;0d&#45;ampin&#45;11 -->
<g id="edge24" class="edge">
<title>nid&#45;0b&#45;&gt;nid&#45;0d&#45;ampin&#45;11</title>
<path fill="none" stroke="#333333" d="M1256.56,-610.17C1325.37,-603.98 1469.01,-591.05 1545.43,-584.18"/>
<polygon fill="#333333" stroke="#333333" points="1546.11,-587.63 1555.75,-583.25 1545.48,-580.66 1546.11,-587.63"/>
</g>
<!-- nid&#45;0f&#45;ampin&#45;11 -->
<g id="node31" class="node">
<title>nid&#45;0f&#45;ampin&#45;11</title>
<polygon fill="none" stroke="#c8c8c8" points="1678.57,-847.65 1555.89,-870.65 1555.89,-824.65 1678.57,-847.65"/>
<text text-anchor="middle" x="1596.79" y="-843.95" font-family="Times,serif" font-size="14.00">1 (0x0b)</text>
</g>
<!-- nid&#45;0b&#45;&gt;nid&#45;0f&#45;ampin&#45;11 -->
<g id="edge28" class="edge">
<title>nid&#45;0b&#45;&gt;nid&#45;0f&#45;ampin&#45;11</title>
<path fill="none" stroke="#333333" d="M1244.46,-635.05C1293.86,-674.11 1404.18,-757.99 1506.89,-812.65 1519.14,-819.17 1532.88,-825.16 1545.83,-830.28"/>
<polygon fill="#333333" stroke="#333333" points="1544.95,-833.69 1555.54,-834.02 1547.46,-827.16 1544.95,-833.69"/>
</g>
<!-- nid&#45;0b&#45;ampin&#45;24 -->
<g id="node13" class="node">
<title>nid&#45;0b&#45;ampin&#45;24</title>
<polygon fill="none" stroke="#c8c8c8" points="918.79,-677.65 796.11,-700.65 796.11,-654.65 918.79,-677.65"/>
<text text-anchor="middle" x="837" y="-673.95" font-family="Times,serif" font-size="14.00">0 (0x18)</text>
</g>
<!-- nid&#45;0b&#45;ampin&#45;24&#45;&gt;nid&#45;0b -->
<g id="edge7" class="edge">
<title>nid&#45;0b&#45;ampin&#45;24&#45;&gt;nid&#45;0b</title>
<path fill="none" stroke="#c8c8c8" d="M880.61,-670.43C953.56,-658.08 1101.5,-633.02 1173.97,-620.75"/>
<polygon fill="#c8c8c8" stroke="#c8c8c8" points="1174.42,-622.45 1179.06,-619.89 1173.83,-619 1174.42,-622.45"/>
</g>
<!-- nid&#45;0b&#45;ampin&#45;25 -->
<g id="node14" class="node">
<title>nid&#45;0b&#45;ampin&#45;25</title>
<polygon fill="none" stroke="#c8c8c8" points="918.79,-485.65 796.11,-508.65 796.11,-462.65 918.79,-485.65"/>
<text text-anchor="middle" x="837" y="-481.95" font-family="Times,serif" font-size="14.00">1 (0x19)</text>
</g>
<!-- nid&#45;0b&#45;ampin&#45;25&#45;&gt;nid&#45;0b -->
<g id="edge8" class="edge">
<title>nid&#45;0b&#45;ampin&#45;25&#45;&gt;nid&#45;0b</title>
<path fill="none" stroke="#c8c8c8" d="M867.03,-495.48C934.5,-518.33 1101.93,-575.05 1177.64,-600.69"/>
<polygon fill="#c8c8c8" stroke="#c8c8c8" points="1177.19,-602.39 1182.49,-602.33 1178.32,-599.07 1177.19,-602.39"/>
</g>
<!-- nid&#45;0b&#45;ampin&#45;26 -->
<g id="node15" class="node">
<title>nid&#45;0b&#45;ampin&#45;26</title>
<polygon fill="none" stroke="#c8c8c8" points="917.69,-741.65 796.66,-764.65 796.66,-718.65 917.69,-741.65"/>
<text text-anchor="middle" x="837" y="-737.95" font-family="Times,serif" font-size="14.00">2 (0x1a)</text>
</g>
<!-- nid&#45;0b&#45;ampin&#45;26&#45;&gt;nid&#45;0b -->
<g id="edge9" class="edge">
<title>nid&#45;0b&#45;ampin&#45;26&#45;&gt;nid&#45;0b</title>
<path fill="none" stroke="#c8c8c8" d="M866.71,-731.92C933.96,-709.14 1101.69,-652.33 1177.56,-626.63"/>
<polygon fill="#c8c8c8" stroke="#c8c8c8" points="1178.24,-628.25 1182.42,-624.99 1177.12,-624.93 1178.24,-628.25"/>
</g>
<!-- nid&#45;0b&#45;ampin&#45;27 -->
<g id="node16" class="node">
<title>nid&#45;0b&#45;ampin&#45;27</title>
<polygon fill="none" stroke="#c8c8c8" points="918.79,-613.65 796.11,-636.65 796.11,-590.65 918.79,-613.65"/>
<text text-anchor="middle" x="837" y="-609.95" font-family="Times,serif" font-size="14.00">3 (0x1b)</text>
</g>
<!-- nid&#45;0b&#45;ampin&#45;27&#45;&gt;nid&#45;0b -->
<g id="edge10" class="edge">
<title>nid&#45;0b&#45;ampin&#45;27&#45;&gt;nid&#45;0b</title>
<path fill="none" stroke="#c8c8c8" d="M919.07,-613.65C995.64,-613.65 1107.76,-613.65 1169.98,-613.65"/>
<polygon fill="#c8c8c8" stroke="#c8c8c8" points="1170.11,-615.4 1175.11,-613.65 1170.11,-611.9 1170.11,-615.4"/>
</g>
<!-- nid&#45;0b&#45;ampin&#45;29 -->
<g id="node17" class="node">
<title>nid&#45;0b&#45;ampin&#45;29</title>
<polygon fill="none" stroke="#c8c8c8" points="918.79,-549.65 796.11,-572.65 796.11,-526.65 918.79,-549.65"/>
<text text-anchor="middle" x="837" y="-545.95" font-family="Times,serif" font-size="14.00">4 (0x1d)</text>
</g>
<!-- nid&#45;0b&#45;ampin&#45;29&#45;&gt;nid&#45;0b -->
<g id="edge11" class="edge">
<title>nid&#45;0b&#45;ampin&#45;29&#45;&gt;nid&#45;0b</title>
<path fill="none" stroke="#c8c8c8" d="M880.61,-556.86C953.56,-569.22 1101.5,-594.27 1173.97,-606.55"/>
<polygon fill="#c8c8c8" stroke="#c8c8c8" points="1173.83,-608.3 1179.06,-607.41 1174.42,-604.85 1173.83,-608.3"/>
</g>
<!-- nid&#45;18&#45;out -->
<g id="node18" class="node">
<title>nid&#45;18&#45;out</title>
<polygon fill="none" stroke="green" points="531.11,-446.65 370.11,-446.65 370.11,-378.65 531.11,-378.65 531.11,-446.65"/>
<text text-anchor="middle" x="450.61" y="-431.45" font-family="Times,serif" font-size="14.00">0x18</text>
<text text-anchor="middle" x="450.61" y="-416.45" font-family="Times,serif" font-size="14.00">[N/A] Speaker at Ext Rear</text>
<text text-anchor="middle" x="450.61" y="-401.45" font-family="Times,serif" font-size="14.00">Stereo</text>
<text text-anchor="middle" x="450.61" y="-386.45" font-family="Times,serif" font-size="14.00">IN OUT HP Detect</text>
</g>
<!-- nid&#45;18&#45;out&#45;&gt;nid&#45;23 -->
<g id="edge54" class="edge">
<title>nid&#45;18&#45;out&#45;&gt;nid&#45;23</title>
<path fill="none" stroke="gray" stroke-dasharray="5,2" d="M531.16,-408.2C751.39,-395.88 1364.72,-361.57 1545.21,-351.48"/>
<polygon fill="gray" stroke="gray" points="1545.43,-354.97 1555.22,-350.92 1545.04,-347.98 1545.43,-354.97"/>
</g>
<!-- nid&#45;18&#45;out&#45;&gt;nid&#45;22 -->
<g id="edge47" class="edge">
<title>nid&#45;18&#45;out&#45;&gt;nid&#45;22</title>
<path fill="none" stroke="#333333" d="M531.16,-395.68C752.13,-348.56 1368.88,-217.04 1547.03,-179.05"/>
<polygon fill="#333333" stroke="#333333" points="1547.85,-182.45 1556.9,-176.94 1546.39,-175.6 1547.85,-182.45"/>
</g>
<!-- nid&#45;18&#45;out&#45;&gt;nid&#45;0b&#45;ampin&#45;24 -->
<g id="edge12" class="edge">
<title>nid&#45;18&#45;out&#45;&gt;nid&#45;0b&#45;ampin&#45;24</title>
<path fill="none" stroke="#333333" d="M527.87,-446.75C534.53,-450.51 541.03,-454.49 547.11,-458.65 647.52,-527.39 643.28,-582.18 747.11,-645.65 759.16,-653.01 773.16,-659.04 786.43,-663.8"/>
<polygon fill="#333333" stroke="#333333" points="785.34,-667.13 795.93,-667.05 787.6,-660.5 785.34,-667.13"/>
</g>
<!-- nid&#45;19&#45;out -->
<g id="node19" class="node">
<title>nid&#45;19&#45;out</title>
<polygon fill="none" stroke="green" points="531.11,-170.65 370.11,-170.65 370.11,-102.65 531.11,-102.65 531.11,-170.65"/>
<text text-anchor="middle" x="450.61" y="-155.45" font-family="Times,serif" font-size="14.00">0x19</text>
<text text-anchor="middle" x="450.61" y="-140.45" font-family="Times,serif" font-size="14.00">[N/A] Speaker at Ext Rear</text>
<text text-anchor="middle" x="450.61" y="-125.45" font-family="Times,serif" font-size="14.00">Stereo</text>
<text text-anchor="middle" x="450.61" y="-110.45" font-family="Times,serif" font-size="14.00">IN Detect</text>
</g>
<!-- nid&#45;19&#45;out&#45;&gt;nid&#45;23 -->
<g id="edge55" class="edge">
<title>nid&#45;19&#45;out&#45;&gt;nid&#45;23</title>
<path fill="none" stroke="gray" stroke-dasharray="5,2" d="M531.16,-151.39C750.25,-191.98 1358.42,-304.67 1542.39,-338.75"/>
<polygon fill="gray" stroke="gray" points="1541.89,-342.22 1552.36,-340.6 1543.16,-335.34 1541.89,-342.22"/>
</g>
<!-- nid&#45;19&#45;out&#45;&gt;nid&#45;22 -->
<g id="edge48" class="edge">
<title>nid&#45;19&#45;out&#45;&gt;nid&#45;22</title>
<path fill="none" stroke="gray" stroke-dasharray="5,2" d="M531.3,-106.85C683.68,-54.07 1026.2,44.25 1306.89,-22.65 1391.6,-42.84 1479.61,-92.08 1535.89,-127.8"/>
<polygon fill="gray" stroke="gray" points="1534.33,-130.97 1544.64,-133.42 1538.11,-125.07 1534.33,-130.97"/>
</g>
<!-- nid&#45;19&#45;out&#45;&gt;nid&#45;0b&#45;ampin&#45;25 -->
<g id="edge13" class="edge">
<title>nid&#45;19&#45;out&#45;&gt;nid&#45;0b&#45;ampin&#45;25</title>
<path fill="none" stroke="#333333" d="M528.62,-170.67C535.05,-174.42 541.3,-178.42 547.11,-182.65 663.66,-267.46 773,-402.71 816.36,-459.35"/>
<polygon fill="#333333" stroke="#333333" points="813.67,-461.59 822.51,-467.43 819.24,-457.35 813.67,-461.59"/>
</g>
<!-- nid&#45;1a&#45;out -->
<g id="node20" class="node">
<title>nid&#45;1a&#45;out</title>
<polygon fill="none" stroke="green" points="523.11,-538.65 378.11,-538.65 378.11,-470.65 523.11,-470.65 523.11,-538.65"/>
<text text-anchor="middle" x="450.61" y="-523.45" font-family="Times,serif" font-size="14.00">0x1a</text>
<text text-anchor="middle" x="450.61" y="-508.45" font-family="Times,serif" font-size="14.00">[Jack] Mic at Ext Front</text>
<text text-anchor="middle" x="450.61" y="-493.45" font-family="Times,serif" font-size="14.00">Stereo</text>
<text text-anchor="middle" x="450.61" y="-478.45" font-family="Times,serif" font-size="14.00">IN OUT HP Detect</text>
</g>
<!-- nid&#45;1a&#45;out&#45;&gt;nid&#45;23 -->
<g id="edge56" class="edge">
<title>nid&#45;1a&#45;out&#45;&gt;nid&#45;23</title>
<path fill="none" stroke="#333333" d="M523.22,-489.29C582.86,-477.05 670.15,-460.4 747.11,-450.65 994.56,-419.29 1059.95,-445.79 1306.89,-410.65 1392.41,-398.48 1490.42,-375.49 1547.49,-361.19"/>
<polygon fill="#333333" stroke="#333333" points="1548.47,-364.55 1557.31,-358.71 1546.76,-357.76 1548.47,-364.55"/>
</g>
<!-- nid&#45;1a&#45;out&#45;&gt;nid&#45;22 -->
<g id="edge49" class="edge">
<title>nid&#45;1a&#45;out&#45;&gt;nid&#45;22</title>
<path fill="none" stroke="gray" stroke-dasharray="5,2" d="M523.35,-484.97C670.61,-444.42 1017.52,-347.98 1306.89,-260.65 1392.22,-234.9 1491.07,-202.96 1548.21,-184.29"/>
<polygon fill="gray" stroke="gray" points="1549.63,-187.51 1558.04,-181.07 1547.45,-180.85 1549.63,-187.51"/>
</g>
<!-- nid&#45;1a&#45;out&#45;&gt;nid&#45;0b&#45;ampin&#45;26 -->
<g id="edge14" class="edge">
<title>nid&#45;1a&#45;out&#45;&gt;nid&#45;0b&#45;ampin&#45;26</title>
<path fill="none" stroke="#333333" d="M493.42,-538.95C548.73,-583.05 650.54,-659.86 747.11,-709.65 759.66,-716.12 773.82,-721.86 787.1,-726.62"/>
<polygon fill="#333333" stroke="#333333" points="785.97,-729.94 796.57,-729.92 788.27,-723.33 785.97,-729.94"/>
</g>
<!-- nid&#45;1b&#45;out -->
<g id="node21" class="node">
<title>nid&#45;1b&#45;out</title>
<polygon fill="none" stroke="green" points="531.11,-354.65 370.11,-354.65 370.11,-286.65 531.11,-286.65 531.11,-354.65"/>
<text text-anchor="middle" x="450.61" y="-339.45" font-family="Times,serif" font-size="14.00">0x1b</text>
<text text-anchor="middle" x="450.61" y="-324.45" font-family="Times,serif" font-size="14.00">[N/A] Speaker at Ext Rear</text>
<text text-anchor="middle" x="450.61" y="-309.45" font-family="Times,serif" font-size="14.00">Stereo</text>
<text text-anchor="middle" x="450.61" y="-294.45" font-family="Times,serif" font-size="14.00">IN OUT HP Detect</text>
</g>
<!-- nid&#45;1b&#45;out&#45;&gt;nid&#45;23 -->
<g id="edge57" class="edge">
<title>nid&#45;1b&#45;out&#45;&gt;nid&#45;23</title>
<path fill="none" stroke="gray" stroke-dasharray="5,2" d="M531.16,-322.59C751.01,-327.97 1362.65,-342.94 1544.29,-347.39"/>
<polygon fill="gray" stroke="gray" points="1544.29,-350.89 1554.37,-347.63 1544.46,-343.89 1544.29,-350.89"/>
</g>
<!-- nid&#45;1b&#45;out&#45;&gt;nid&#45;22 -->
<g id="edge50" class="edge">
<title>nid&#45;1b&#45;out&#45;&gt;nid&#45;22</title>
<path fill="none" stroke="gray" stroke-dasharray="5,2" d="M526.38,-286.5C606.22,-250.32 724.39,-197.69 747.11,-192.65 900.14,-158.66 1384.76,-164.58 1544.31,-167.56"/>
<polygon fill="gray" stroke="gray" points="1544.27,-171.06 1554.34,-167.75 1544.41,-164.06 1544.27,-171.06"/>
</g>
<!-- nid&#45;1b&#45;out&#45;&gt;nid&#45;0b&#45;ampin&#45;27 -->
<g id="edge15" class="edge">
<title>nid&#45;1b&#45;out&#45;&gt;nid&#45;0b&#45;ampin&#45;27</title>
<path fill="none" stroke="#333333" d="M529.17,-354.88C535.42,-358.57 541.48,-362.5 547.11,-366.65 652.16,-444.08 638.2,-509.74 747.11,-581.65 759,-589.5 773.07,-595.71 786.46,-600.49"/>
<polygon fill="#333333" stroke="#333333" points="785.45,-603.84 796.04,-603.71 787.68,-597.21 785.45,-603.84"/>
</g>
<!-- nid&#45;1d&#45;out -->
<g id="node22" class="node">
<title>nid&#45;1d&#45;out</title>
<polygon fill="none" stroke="green" points="539.11,-262.65 362.11,-262.65 362.11,-194.65 539.11,-194.65 539.11,-262.65"/>
<text text-anchor="middle" x="450.61" y="-247.45" font-family="Times,serif" font-size="14.00">0x1d</text>
<text text-anchor="middle" x="450.61" y="-232.45" font-family="Times,serif" font-size="14.00">[N/A] Digital Out at Ext N/A</text>
<text text-anchor="middle" x="450.61" y="-217.45" font-family="Times,serif" font-size="14.00">Mono</text>
<text text-anchor="middle" x="450.61" y="-202.45" font-family="Times,serif" font-size="14.00">IN</text>
</g>
<!-- nid&#45;1d&#45;out&#45;&gt;nid&#45;23 -->
<g id="edge58" class="edge">
<title>nid&#45;1d&#45;out&#45;&gt;nid&#45;23</title>
<path fill="none" stroke="gray" stroke-dasharray="5,2" d="M539.49,-237.86C765.74,-261.59 1363.11,-324.24 1543.48,-343.16"/>
<polygon fill="gray" stroke="gray" points="1543.2,-346.65 1553.51,-344.21 1543.93,-339.69 1543.2,-346.65"/>
</g>
<!-- nid&#45;1d&#45;out&#45;&gt;nid&#45;22 -->
<g id="edge51" class="edge">
<title>nid&#45;1d&#45;out&#45;&gt;nid&#45;22</title>
<path fill="none" stroke="gray" stroke-dasharray="5,2" d="M539.11,-200.72C597.37,-183.63 675.99,-163.42 747.11,-154.65 1046.44,-117.74 1409.6,-148.79 1543.21,-162.73"/>
<polygon fill="gray" stroke="gray" points="1542.87,-166.22 1553.18,-163.79 1543.6,-159.25 1542.87,-166.22"/>
</g>
<!-- nid&#45;1d&#45;out&#45;&gt;nid&#45;0b&#45;ampin&#45;29 -->
<g id="edge16" class="edge">
<title>nid&#45;1d&#45;out&#45;&gt;nid&#45;0b&#45;ampin&#45;29</title>
<path fill="none" stroke="#333333" d="M529.94,-262.81C535.95,-266.49 541.75,-270.44 547.11,-274.65 657.13,-361.02 632.77,-437.08 747.11,-517.65 758.76,-525.86 772.75,-532.18 786.14,-536.95"/>
<polygon fill="#333333" stroke="#333333" points="785.15,-540.31 795.74,-540.16 787.36,-533.67 785.15,-540.31"/>
</g>
<!-- nid&#45;0c -->
<g id="node23" class="node">
<title>nid&#45;0c</title>
<polygon fill="none" stroke="black" points="1978.1,-721.65 1957.21,-752.7 1915.43,-752.7 1894.54,-721.65 1915.43,-690.59 1957.21,-690.59 1978.1,-721.65"/>
<text text-anchor="middle" x="1936.32" y="-725.45" font-family="Times,serif" font-size="14.00">0x0c</text>
<text text-anchor="middle" x="1936.32" y="-710.45" font-family="Times,serif" font-size="14.00">Stereo</text>
</g>
<!-- nid&#45;14&#45;in -->
<g id="node33" class="node">
<title>nid&#45;14&#45;in</title>
<polygon fill="none" stroke="green" points="2355.96,-574.65 2194.96,-574.65 2194.96,-506.65 2355.96,-506.65 2355.96,-574.65"/>
<text text-anchor="middle" x="2275.46" y="-559.45" font-family="Times,serif" font-size="14.00">0x14</text>
<text text-anchor="middle" x="2275.46" y="-544.45" font-family="Times,serif" font-size="14.00">[N/A] Speaker at Ext Rear</text>
<text text-anchor="middle" x="2275.46" y="-529.45" font-family="Times,serif" font-size="14.00">Stereo</text>
<text text-anchor="middle" x="2275.46" y="-514.45" font-family="Times,serif" font-size="14.00">OUT HP Detect</text>
</g>
<!-- nid&#45;0c&#45;&gt;nid&#45;14&#45;in -->
<g id="edge29" class="edge">
<title>nid&#45;0c&#45;&gt;nid&#45;14&#45;in</title>
<path fill="none" stroke="#333333" d="M1967.46,-705.05C2014.14,-679.41 2106.8,-628.71 2185.96,-586.65 2190.43,-584.27 2195.04,-581.84 2199.69,-579.39"/>
<polygon fill="#333333" stroke="#333333" points="2201.44,-582.43 2208.67,-574.68 2198.18,-576.23 2201.44,-582.43"/>
</g>
<!-- nid&#45;18&#45;in -->
<g id="node35" class="node">
<title>nid&#45;18&#45;in</title>
<polygon fill="none" stroke="green" points="2355.96,-758.65 2194.96,-758.65 2194.96,-690.65 2355.96,-690.65 2355.96,-758.65"/>
<text text-anchor="middle" x="2275.46" y="-743.45" font-family="Times,serif" font-size="14.00">0x18</text>
<text text-anchor="middle" x="2275.46" y="-728.45" font-family="Times,serif" font-size="14.00">[N/A] Speaker at Ext Rear</text>
<text text-anchor="middle" x="2275.46" y="-713.45" font-family="Times,serif" font-size="14.00">Stereo</text>
<text text-anchor="middle" x="2275.46" y="-698.45" font-family="Times,serif" font-size="14.00">IN OUT HP Detect</text>
</g>
<!-- nid&#45;0c&#45;&gt;nid&#45;18&#45;in -->
<g id="edge34" class="edge">
<title>nid&#45;0c&#45;&gt;nid&#45;18&#45;in</title>
<path fill="none" stroke="#333333" d="M1977.99,-722.01C2028.88,-722.46 2117.5,-723.25 2184.63,-723.85"/>
<polygon fill="#333333" stroke="#333333" points="2184.76,-727.35 2194.79,-723.94 2184.82,-720.35 2184.76,-727.35"/>
</g>
<!-- nid&#45;1a&#45;in -->
<g id="node38" class="node">
<title>nid&#45;1a&#45;in</title>
<polygon fill="none" stroke="green" points="2347.96,-482.65 2202.96,-482.65 2202.96,-414.65 2347.96,-414.65 2347.96,-482.65"/>
<text text-anchor="middle" x="2275.46" y="-467.45" font-family="Times,serif" font-size="14.00">0x1a</text>
<text text-anchor="middle" x="2275.46" y="-452.45" font-family="Times,serif" font-size="14.00">[Jack] Mic at Ext Front</text>
<text text-anchor="middle" x="2275.46" y="-437.45" font-family="Times,serif" font-size="14.00">Stereo</text>
<text text-anchor="middle" x="2275.46" y="-422.45" font-family="Times,serif" font-size="14.00">IN OUT HP Detect</text>
</g>
<!-- nid&#45;0c&#45;&gt;nid&#45;1a&#45;in -->
<g id="edge38" class="edge">
<title>nid&#45;0c&#45;&gt;nid&#45;1a&#45;in</title>
<path fill="none" stroke="#333333" d="M1963.15,-698.98C1970.55,-692.45 1978.6,-685.29 1985.96,-678.65 2075.66,-597.76 2087.07,-563.99 2185.96,-494.65 2189.05,-492.48 2192.25,-490.35 2195.53,-488.27"/>
<polygon fill="#333333" stroke="#333333" points="2197.65,-491.07 2204.34,-482.86 2193.99,-485.11 2197.65,-491.07"/>
</g>
<!-- nid&#45;1b&#45;in -->
<g id="node41" class="node">
<title>nid&#45;1b&#45;in</title>
<polygon fill="none" stroke="green" points="2355.96,-850.65 2194.96,-850.65 2194.96,-782.65 2355.96,-782.65 2355.96,-850.65"/>
<text text-anchor="middle" x="2275.46" y="-835.45" font-family="Times,serif" font-size="14.00">0x1b</text>
<text text-anchor="middle" x="2275.46" y="-820.45" font-family="Times,serif" font-size="14.00">[N/A] Speaker at Ext Rear</text>
<text text-anchor="middle" x="2275.46" y="-805.45" font-family="Times,serif" font-size="14.00">Stereo</text>
<text text-anchor="middle" x="2275.46" y="-790.45" font-family="Times,serif" font-size="14.00">IN OUT HP Detect</text>
</g>
<!-- nid&#45;0c&#45;&gt;nid&#45;1b&#45;in -->
<g id="edge42" class="edge">
<title>nid&#45;0c&#45;&gt;nid&#45;1b&#45;in</title>
<path fill="none" stroke="#333333" d="M1971.82,-731.37C2021.58,-745.39 2115.23,-771.78 2185.23,-791.5"/>
<polygon fill="#333333" stroke="#333333" points="2184.37,-794.9 2194.94,-794.24 2186.27,-788.16 2184.37,-794.9"/>
</g>
<!-- nid&#45;21&#45;in -->
<g id="node45" class="node">
<title>nid&#45;21&#45;in</title>
<polygon fill="none" stroke="green" points="2356.96,-666.65 2193.96,-666.65 2193.96,-598.65 2356.96,-598.65 2356.96,-666.65"/>
<text text-anchor="middle" x="2275.46" y="-651.45" font-family="Times,serif" font-size="14.00">0x21</text>
<text text-anchor="middle" x="2275.46" y="-636.45" font-family="Times,serif" font-size="14.00">[Jack] HP Out at Ext Front</text>
<text text-anchor="middle" x="2275.46" y="-621.45" font-family="Times,serif" font-size="14.00">Stereo</text>
<text text-anchor="middle" x="2275.46" y="-606.45" font-family="Times,serif" font-size="14.00">OUT HP Detect</text>
</g>
<!-- nid&#45;0c&#45;&gt;nid&#45;21&#45;in -->
<g id="edge45" class="edge">
<title>nid&#45;0c&#45;&gt;nid&#45;21&#45;in</title>
<path fill="none" stroke="gray" stroke-dasharray="5,2" d="M1972.13,-712.46C2021.7,-699.37 2114.34,-674.92 2184.06,-656.51"/>
<polygon fill="gray" stroke="gray" points="2184.97,-659.89 2193.74,-653.96 2183.18,-653.12 2184.97,-659.89"/>
</g>
<!-- nid&#45;0c&#45;ampin&#45;2&#45;&gt;nid&#45;0c -->
<g id="edge17" class="edge">
<title>nid&#45;0c&#45;ampin&#45;2&#45;&gt;nid&#45;0c</title>
<path fill="none" stroke="#0000ff" d="M1640.88,-770.5C1705.87,-759.71 1828.25,-739.41 1892.87,-728.69"/>
<polygon fill="#0000ff" stroke="#0000ff" points="1893.53,-730.35 1898.18,-727.81 1892.96,-726.9 1893.53,-730.35"/>
</g>
<!-- nid&#45;0c&#45;ampin&#45;11&#45;&gt;nid&#45;0c -->
<g id="edge18" class="edge">
<title>nid&#45;0c&#45;ampin&#45;11&#45;&gt;nid&#45;0c</title>
<path fill="none" stroke="#c8c8c8" d="M1669.78,-715.35C1736.37,-716.93 1833.31,-719.23 1889.78,-720.57"/>
<polygon fill="#c8c8c8" stroke="#c8c8c8" points="1890.08,-722.33 1895.12,-720.69 1890.16,-718.83 1890.08,-722.33"/>
</g>
<!-- nid&#45;0d -->
<g id="node26" class="node">
<title>nid&#45;0d</title>
<polygon fill="none" stroke="black" points="1978.1,-632.65 1957.21,-663.7 1915.43,-663.7 1894.54,-632.65 1915.43,-601.59 1957.21,-601.59 1978.1,-632.65"/>
<text text-anchor="middle" x="1936.32" y="-636.45" font-family="Times,serif" font-size="14.00">0x0d</text>
<text text-anchor="middle" x="1936.32" y="-621.45" font-family="Times,serif" font-size="14.00">Stereo</text>
</g>
<!-- nid&#45;0d&#45;&gt;nid&#45;14&#45;in -->
<g id="edge30" class="edge">
<title>nid&#45;0d&#45;&gt;nid&#45;14&#45;in</title>
<path fill="none" stroke="gray" stroke-dasharray="5,2" d="M1971.82,-623.23C2021.58,-609.65 2115.23,-584.1 2185.23,-565"/>
<polygon fill="gray" stroke="gray" points="2186.22,-568.36 2194.94,-562.35 2184.38,-561.6 2186.22,-568.36"/>
</g>
<!-- nid&#45;0d&#45;&gt;nid&#45;18&#45;in -->
<g id="edge35" class="edge">
<title>nid&#45;0d&#45;&gt;nid&#45;18&#45;in</title>
<path fill="none" stroke="gray" stroke-dasharray="5,2" d="M1971.82,-642.06C2021.58,-655.64 2115.23,-681.2 2185.23,-700.3"/>
<polygon fill="gray" stroke="gray" points="2184.38,-703.69 2194.94,-702.95 2186.22,-696.94 2184.38,-703.69"/>
</g>
<!-- nid&#45;0d&#45;&gt;nid&#45;1a&#45;in -->
<g id="edge39" class="edge">
<title>nid&#45;0d&#45;&gt;nid&#45;1a&#45;in</title>
<path fill="none" stroke="gray" stroke-dasharray="5,2" d="M1967.03,-615.81C2013.52,-589.55 2106.37,-537.41 2185.96,-494.65 2190.22,-492.36 2194.6,-490.03 2199.02,-487.68"/>
<polygon fill="gray" stroke="gray" points="2200.94,-490.63 2208.15,-482.86 2197.67,-484.44 2200.94,-490.63"/>
</g>
<!-- nid&#45;0d&#45;&gt;nid&#45;1b&#45;in -->
<g id="edge43" class="edge">
<title>nid&#45;0d&#45;&gt;nid&#45;1b&#45;in</title>
<path fill="none" stroke="gray" stroke-dasharray="5,2" d="M1967.03,-649.48C2013.52,-675.74 2106.37,-727.89 2185.96,-770.65 2190.22,-772.93 2194.6,-775.27 2199.02,-777.61"/>
<polygon fill="gray" stroke="gray" points="2197.67,-780.86 2208.15,-782.43 2200.94,-774.67 2197.67,-780.86"/>
</g>
<!-- nid&#45;0d&#45;&gt;nid&#45;21&#45;in -->
<g id="edge46" class="edge">
<title>nid&#45;0d&#45;&gt;nid&#45;21&#45;in</title>
<path fill="none" stroke="#333333" d="M1977.99,-632.65C2028.63,-632.65 2116.63,-632.65 2183.64,-632.65"/>
<polygon fill="#333333" stroke="#333333" points="2183.79,-636.15 2193.79,-632.65 2183.79,-629.15 2183.79,-636.15"/>
</g>
<!-- nid&#45;0d&#45;ampin&#45;3&#45;&gt;nid&#45;0d -->
<g id="edge21" class="edge">
<title>nid&#45;0d&#45;ampin&#45;3&#45;&gt;nid&#45;0d</title>
<path fill="none" stroke="#0000ff" d="M1666.91,-641.39C1733.74,-639.22 1833.07,-635.98 1890.28,-634.12"/>
<polygon fill="#0000ff" stroke="#0000ff" points="1890.41,-635.86 1895.35,-633.95 1890.29,-632.36 1890.41,-635.86"/>
</g>
<!-- nid&#45;0d&#45;ampin&#45;11&#45;&gt;nid&#45;0d -->
<g id="edge22" class="edge">
<title>nid&#45;0d&#45;ampin&#45;11&#45;&gt;nid&#45;0d</title>
<path fill="none" stroke="#c8c8c8" d="M1641.91,-586.58C1707.18,-596.82 1828.63,-615.9 1892.9,-625.99"/>
<polygon fill="#c8c8c8" stroke="#c8c8c8" points="1892.97,-627.77 1898.18,-626.82 1893.52,-624.31 1892.97,-627.77"/>
</g>
<!-- nid&#45;0f -->
<g id="node29" class="node">
<title>nid&#45;0f</title>
<polygon fill="none" stroke="black" points="1976.97,-903.65 1956.65,-934.7 1915.99,-934.7 1895.67,-903.65 1915.99,-872.59 1956.65,-872.59 1976.97,-903.65"/>
<text text-anchor="middle" x="1936.32" y="-907.45" font-family="Times,serif" font-size="14.00">0x0f</text>
<text text-anchor="middle" x="1936.32" y="-892.45" font-family="Times,serif" font-size="14.00">Mono</text>
</g>
<!-- nid&#45;17&#45;in -->
<g id="node34" class="node">
<title>nid&#45;17&#45;in</title>
<polygon fill="none" stroke="green" points="2356.96,-942.65 2193.96,-942.65 2193.96,-874.65 2356.96,-874.65 2356.96,-942.65"/>
<text text-anchor="middle" x="2275.46" y="-927.45" font-family="Times,serif" font-size="14.00">0x17</text>
<text text-anchor="middle" x="2275.46" y="-912.45" font-family="Times,serif" font-size="14.00">[Fixed] Speaker at Int N/A</text>
<text text-anchor="middle" x="2275.46" y="-897.45" font-family="Times,serif" font-size="14.00">Mono</text>
<text text-anchor="middle" x="2275.46" y="-882.45" font-family="Times,serif" font-size="14.00">OUT EAPD</text>
</g>
<!-- nid&#45;0f&#45;&gt;nid&#45;17&#45;in -->
<g id="edge31" class="edge">
<title>nid&#45;0f&#45;&gt;nid&#45;17&#45;in</title>
<path fill="none" stroke="#333333" d="M1976.65,-904.23C2027.05,-904.98 2115.94,-906.3 2183.53,-907.3"/>
<polygon fill="#333333" stroke="#333333" points="2183.72,-910.8 2193.77,-907.45 2183.82,-903.8 2183.72,-910.8"/>
</g>
<!-- nid&#45;0f&#45;ampin&#45;2&#45;&gt;nid&#45;0f -->
<g id="edge25" class="edge">
<title>nid&#45;0f&#45;ampin&#45;2&#45;&gt;nid&#45;0f</title>
<path fill="none" stroke="#0000ff" d="M1669.78,-909.94C1736.74,-908.35 1834.4,-906.04 1890.73,-904.7"/>
<polygon fill="#0000ff" stroke="#0000ff" points="1891.09,-906.45 1896.05,-904.58 1891.01,-902.95 1891.09,-906.45"/>
</g>
<!-- nid&#45;0f&#45;ampin&#45;11&#45;&gt;nid&#45;0f -->
<g id="edge26" class="edge">
<title>nid&#45;0f&#45;ampin&#45;11&#45;&gt;nid&#45;0f</title>
<path fill="none" stroke="#c8c8c8" d="M1640.88,-854.8C1706.22,-865.64 1829.55,-886.1 1893.89,-896.77"/>
<polygon fill="#c8c8c8" stroke="#c8c8c8" points="1893.96,-898.56 1899.18,-897.65 1894.53,-895.11 1893.96,-898.56"/>
</g>
<!-- nid&#45;12&#45;out -->
<g id="node32" class="node">
<title>nid&#45;12&#45;out</title>
<polygon fill="none" stroke="green" points="1298.89,-102.65 1134.89,-102.65 1134.89,-34.65 1298.89,-34.65 1298.89,-102.65"/>
<text text-anchor="middle" x="1216.89" y="-87.45" font-family="Times,serif" font-size="14.00">0x12</text>
<text text-anchor="middle" x="1216.89" y="-72.45" font-family="Times,serif" font-size="14.00">[N/A] Line Out at Ext N/A</text>
<text text-anchor="middle" x="1216.89" y="-57.45" font-family="Times,serif" font-size="14.00">Stereo</text>
<text text-anchor="middle" x="1216.89" y="-42.45" font-family="Times,serif" font-size="14.00">IN</text>
</g>
<!-- nid&#45;12&#45;out&#45;&gt;nid&#45;22 -->
<g id="edge53" class="edge">
<title>nid&#45;12&#45;out&#45;&gt;nid&#45;22</title>
<path fill="none" stroke="gray" stroke-dasharray="5,2" d="M1298.96,-90.1C1372.25,-109.49 1478.09,-137.5 1541.6,-154.31"/>
<polygon fill="gray" stroke="gray" points="1540.85,-157.73 1551.41,-156.91 1542.64,-150.96 1540.85,-157.73"/>
</g>
<!-- nid&#45;18&#45;ampout -->
<g id="node36" class="node">
<title>nid&#45;18&#45;ampout</title>
<polygon fill="none" stroke="#c8c8c8" points="2626.96,-724.65 2586.46,-742.65 2586.46,-706.65 2626.96,-724.65"/>
</g>
<!-- nid&#45;18&#45;in&#45;&gt;nid&#45;18&#45;ampout -->
<g id="edge32" class="edge">
<title>nid&#45;18&#45;in&#45;&gt;nid&#45;18&#45;ampout</title>
<path fill="none" stroke="#c8c8c8" d="M2356.18,-724.65C2431.67,-724.65 2539.5,-724.65 2581.39,-724.65"/>
<polygon fill="#c8c8c8" stroke="#c8c8c8" points="2581.39,-726.4 2586.39,-724.65 2581.39,-722.9 2581.39,-726.4"/>
</g>
<!-- nid&#45;18&#45;ampin -->
<g id="node37" class="node">
<title>nid&#45;18&#45;ampin</title>
<polygon fill="none" stroke="#0000ff" points="108.05,-412.65 67.55,-430.65 67.55,-394.65 108.05,-412.65"/>
</g>
<!-- nid&#45;18&#45;ampin&#45;&gt;nid&#45;18&#45;out -->
<g id="edge33" class="edge">
<title>nid&#45;18&#45;ampin&#45;&gt;nid&#45;18&#45;out</title>
<path fill="none" stroke="#0000ff" d="M108.19,-412.65C160.83,-412.65 281.64,-412.65 364.46,-412.65"/>
<polygon fill="#0000ff" stroke="#0000ff" points="364.86,-414.4 369.86,-412.65 364.86,-410.9 364.86,-414.4"/>
</g>
<!-- nid&#45;1a&#45;ampout -->
<g id="node39" class="node">
<title>nid&#45;1a&#45;ampout</title>
<polygon fill="none" stroke="#c8c8c8" points="2626.96,-448.65 2586.46,-466.65 2586.46,-430.65 2626.96,-448.65"/>
</g>
<!-- nid&#45;1a&#45;in&#45;&gt;nid&#45;1a&#45;ampout -->
<g id="edge36" class="edge">
<title>nid&#45;1a&#45;in&#45;&gt;nid&#45;1a&#45;ampout</title>
<path fill="none" stroke="#c8c8c8" d="M2348.03,-448.65C2423.49,-448.65 2537.35,-448.65 2581.03,-448.65"/>
<polygon fill="#c8c8c8" stroke="#c8c8c8" points="2581.24,-450.4 2586.24,-448.65 2581.24,-446.9 2581.24,-450.4"/>
</g>
<!-- nid&#45;1a&#45;ampin -->
<g id="node40" class="node">
<title>nid&#45;1a&#45;ampin</title>
<polygon fill="none" stroke="#0000ff" points="108.05,-504.65 67.55,-522.65 67.55,-486.65 108.05,-504.65"/>
</g>
<!-- nid&#45;1a&#45;ampin&#45;&gt;nid&#45;1a&#45;out -->
<g id="edge37" class="edge">
<title>nid&#45;1a&#45;ampin&#45;&gt;nid&#45;1a&#45;out</title>
<path fill="none" stroke="#0000ff" d="M108.19,-504.65C162.6,-504.65 289.82,-504.65 372.66,-504.65"/>
<polygon fill="#0000ff" stroke="#0000ff" points="373.05,-506.4 378.05,-504.65 373.05,-502.9 373.05,-506.4"/>
</g>
<!-- nid&#45;1b&#45;ampout -->
<g id="node42" class="node">
<title>nid&#45;1b&#45;ampout</title>
<polygon fill="none" stroke="#c8c8c8" points="2626.96,-816.65 2586.46,-834.65 2586.46,-798.65 2626.96,-816.65"/>
</g>
<!-- nid&#45;1b&#45;in&#45;&gt;nid&#45;1b&#45;ampout -->
<g id="edge40" class="edge">
<title>nid&#45;1b&#45;in&#45;&gt;nid&#45;1b&#45;ampout</title>
<path fill="none" stroke="#c8c8c8" d="M2356.18,-816.65C2431.67,-816.65 2539.5,-816.65 2581.39,-816.65"/>
<polygon fill="#c8c8c8" stroke="#c8c8c8" points="2581.39,-818.4 2586.39,-816.65 2581.39,-814.9 2581.39,-818.4"/>
</g>
<!-- nid&#45;1b&#45;ampin -->
<g id="node43" class="node">
<title>nid&#45;1b&#45;ampin</title>
<polygon fill="none" stroke="#0000ff" points="108.05,-320.65 67.55,-338.65 67.55,-302.65 108.05,-320.65"/>
</g>
<!-- nid&#45;1b&#45;ampin&#45;&gt;nid&#45;1b&#45;out -->
<g id="edge41" class="edge">
<title>nid&#45;1b&#45;ampin&#45;&gt;nid&#45;1b&#45;out</title>
<path fill="none" stroke="#0000ff" d="M108.19,-320.65C160.83,-320.65 281.64,-320.65 364.46,-320.65"/>
<polygon fill="#0000ff" stroke="#0000ff" points="364.86,-322.4 369.86,-320.65 364.86,-318.9 364.86,-322.4"/>
</g>
</g>
</svg>
